<svg width="23" height="22" viewBox="0 0 23 22" fill="none" xmlns="http://www.w3.org/2000/svg">
<path fill-rule="evenodd" clip-rule="evenodd" d="M1.04785 2.75005C1.04785 1.80912 1.80675 1.05005 2.73833 1.05005C3.66991 1.05005 4.4288 1.80912 4.4288 2.75005C4.4288 3.69098 3.66991 4.45005 2.73833 4.45005C1.80675 4.45005 1.04785 3.69098 1.04785 2.75005ZM2.73833 0.0500488C1.25038 0.0500488 0.0478516 1.26093 0.0478516 2.75005C0.0478516 4.23917 1.25038 5.45005 2.73833 5.45005C4.22628 5.45005 5.4288 4.23917 5.4288 2.75005C5.4288 1.26093 4.22628 0.0500488 2.73833 0.0500488ZM15.8812 7.65005C14.2716 7.65005 12.7276 8.2922 11.5888 9.43593C10.4499 10.5797 9.80976 12.1315 9.80976 13.75V20.9501H13.1907V13.75C13.1907 13.0347 13.4736 12.3481 13.978 11.8416C14.4824 11.335 15.1669 11.05 15.8812 11.05C16.5954 11.05 17.28 11.335 17.7844 11.8416C18.2887 12.3481 18.5717 13.0347 18.5717 13.75V20.9501H21.9526V13.75C21.9526 12.1315 21.3124 10.5797 20.1736 9.43593C19.0348 8.2922 17.4907 7.65005 15.8812 7.65005ZM15.8812 6.65005C14.005 6.65005 12.2061 7.39861 10.8802 8.73036C9.55426 10.062 8.80976 11.8677 8.80976 13.75V21.4501C8.80976 21.7262 9.03361 21.9501 9.30976 21.9501H13.6907C13.9669 21.9501 14.1907 21.7262 14.1907 21.4501V13.75C14.1907 13.2985 14.3693 12.8658 14.6866 12.5472C15.0038 12.2286 15.4335 12.05 15.8812 12.05C16.3288 12.05 16.7586 12.2286 17.0758 12.5472C17.393 12.8658 17.5717 13.2985 17.5717 13.75V21.4501C17.5717 21.7262 17.7955 21.9501 18.0717 21.9501H22.4526C22.7288 21.9501 22.9526 21.7262 22.9526 21.4501V13.75C22.9526 11.8677 22.2081 10.062 20.8822 8.73036C19.5562 7.39861 17.7573 6.65005 15.8812 6.65005ZM0.0478516 8.25005C0.0478516 7.97391 0.271709 7.75005 0.547852 7.75005H4.9288C5.20495 7.75005 5.4288 7.97391 5.4288 8.25005V21.4501C5.4288 21.7262 5.20495 21.9501 4.9288 21.9501H0.547852C0.271709 21.9501 0.0478516 21.7262 0.0478516 21.4501V8.25005ZM1.04785 8.75005V20.9501H4.4288V8.75005H1.04785Z" fill="black"/>
</svg>
